<?xml version="1.0" encoding="utf-8" standalone="no"?>
<!DOCTYPE svg PUBLIC "-//W3C//DTD SVG 1.1//EN"
  "http://www.w3.org/Graphics/SVG/1.1/DTD/svg11.dtd">
<svg xmlns:xlink="http://www.w3.org/1999/xlink" width="1152pt" height="720pt" viewBox="0 0 1152 720" xmlns="http://www.w3.org/2000/svg" version="1.1">
 <metadata>
  <rdf:RDF xmlns:dc="http://purl.org/dc/elements/1.1/" xmlns:cc="http://creativecommons.org/ns#" xmlns:rdf="http://www.w3.org/1999/02/22-rdf-syntax-ns#">
   <cc:Work>
    <dc:type rdf:resource="http://purl.org/dc/dcmitype/StillImage"/>
    <dc:date>2026-09-05T07:22:14.647192</dc:date>
    <dc:format>image/svg+xml</dc:format>
    <dc:creator>
     <cc:Agent>
      <dc:title>Matplotlib v3.10.8, https://matplotlib.org/</dc:title>
     </cc:Agent>
    </dc:creator>
   </cc:Work>
  </rdf:RDF>
 </metadata>
 <defs>
  <style type="text/css">*{stroke-linejoin: round; stroke-linecap: butt}</style>
 </defs>
 <g id="figure_1">
  <g id="patch_1">
   <path d="M 0 720 
L 1152 720 
L 1152 0 
L 0 0 
z
" style="fill: #f7f5ef"/>
  </g>
  <g id="axes_1">
   <g id="patch_2">
    <path d="M 74.88 522 
L 835.2 522 
L 835.2 140.4 
L 74.88 140.4 
z
" style="fill: #f7f5ef"/>
   </g>
   <g id="patch_3">
    <path d="M 74.88 522 
L 313.189254 522 
L 313.189254 140.4 
L 74.88 140.4 
z
" clip-path="url(#p3c78bcf553)" style="fill: #ead2b0"/>
   </g>
   <g id="patch_4">
    <path d="M 313.189254 522 
L 585.542687 522 
L 585.542687 140.4 
L 313.189254 140.4 
z
" clip-path="url(#p3c78bcf553)" style="fill: #d9e4ce"/>
   </g>
   <g id="patch_5">
    <path d="M 585.542687 522 
L 835.2 522 
L 835.2 140.4 
L 585.542687 140.4 
z
" clip-path="url(#p3c78bcf553)" style="fill: #dde9eb"/>
   </g>
   <g id="patch_6">
    <path d="M 74.88 522 
L 835.2 522 
L 835.2 452.618182 
L 74.88 452.618182 
z
" clip-path="url(#p3c78bcf553)" style="fill: #c6beaf"/>
   </g>
   <g id="patch_7">
    <path d="M 188.360597 441.777273 
C 201.151145 441.777273 213.419546 438.80738 222.463829 433.521678 
C 231.508112 428.235976 236.589851 421.06602 236.589851 413.590909 
C 236.589851 406.115798 231.508112 398.945842 222.463829 393.66014 
C 213.419546 388.374439 201.151145 385.404545 188.360597 385.404545 
C 175.570049 385.404545 163.301648 388.374439 154.257365 393.66014 
C 145.213082 398.945842 140.131343 406.115798 140.131343 413.590909 
C 140.131343 421.06602 145.213082 428.235976 154.257365 433.521678 
C 163.301648 438.80738 175.570049 441.777273 188.360597 441.777273 
z
" clip-path="url(#p3c78bcf553)" style="fill: #b45939; opacity: 0.3; stroke: #b45939; stroke-width: 2; stroke-linejoin: miter"/>
   </g>
   <g id="patch_8">
    <path d="M 313.189254 404.918182 
C 327.484572 404.918182 341.196315 400.806022 351.304631 393.487358 
C 361.412947 386.168694 367.092537 376.241063 367.092537 365.890909 
C 367.092537 355.540755 361.412947 345.613124 351.304631 338.29446 
C 341.196315 330.975796 327.484572 326.863636 313.189254 326.863636 
C 298.893936 326.863636 285.182193 330.975796 275.073876 338.29446 
C 264.96556 345.613124 259.28597 355.540755 259.28597 365.890909 
C 259.28597 376.241063 264.96556 386.168694 275.073876 393.487358 
C 285.182193 400.806022 298.893936 404.918182 313.189254 404.918182 
z
" clip-path="url(#p3c78bcf553)" style="fill: #c17c36; opacity: 0.3; stroke: #c17c36; stroke-width: 2; stroke-linejoin: miter"/>
   </g>
   <g id="patch_9">
    <path d="M 432.343881 424.431818 
C 445.886813 424.431818 458.876886 421.005018 468.453185 414.906132 
C 478.029485 408.807245 483.410149 400.534219 483.410149 391.909091 
C 483.410149 383.283963 478.029485 375.010936 468.453185 368.91205 
C 458.876886 362.813163 445.886813 359.386364 432.343881 359.386364 
C 418.800948 359.386364 405.810875 362.813163 396.234576 368.91205 
C 386.658276 375.010936 381.277612 383.283963 381.277612 391.909091 
C 381.277612 400.534219 386.658276 408.807245 396.234576 414.906132 
C 405.810875 421.005018 418.800948 424.431818 432.343881 424.431818 
z
" clip-path="url(#p3c78bcf553)" style="fill: #558c64; opacity: 0.3; stroke: #558c64; stroke-width: 2; stroke-linejoin: miter"/>
   </g>
   <g id="patch_10">
    <path d="M 443.69194 501.185455 
C 456.482488 501.185455 468.75089 499.266447 477.795173 495.85107 
C 486.839456 492.435694 491.921194 487.802799 491.921194 482.972727 
C 491.921194 478.142656 486.839456 473.509761 477.795173 470.094384 
C 468.75089 466.679008 456.482488 464.76 443.69194 464.76 
C 430.901393 464.76 418.632991 466.679008 409.588708 470.094384 
C 400.544425 473.509761 395.462687 478.142656 395.462687 482.972727 
C 395.462687 487.802799 400.544425 492.435694 409.588708 495.85107 
C 418.632991 499.266447 430.901393 501.185455 443.69194 501.185455 
z
" clip-path="url(#p3c78bcf553)" style="fill: #836d9a; opacity: 0.3; stroke: #836d9a; stroke-width: 2; stroke-linejoin: miter"/>
   </g>
   <g id="patch_11">
    <path d="M 551.498507 417.927273 
C 562.0319 417.927273 572.135289 414.728926 579.583522 409.036632 
C 587.031755 403.344338 591.216716 395.622847 591.216716 387.572727 
C 591.216716 379.522608 587.031755 371.801116 579.583522 366.108822 
C 572.135289 360.416528 562.0319 357.218182 551.498507 357.218182 
C 540.965115 357.218182 530.861726 360.416528 523.413493 366.108822 
C 515.96526 371.801116 511.780299 379.522608 511.780299 387.572727 
C 511.780299 395.622847 515.96526 403.344338 523.413493 409.036632 
C 530.861726 414.728926 540.965115 417.927273 551.498507 417.927273 
z
" clip-path="url(#p3c78bcf553)" style="fill: #52738e; opacity: 0.3; stroke: #52738e; stroke-width: 2; stroke-linejoin: miter"/>
   </g>
   <g id="patch_12">
    <path d="M 494.758209 240.136364 
C 513.567838 240.136364 531.609605 237.394924 544.910021 232.515815 
C 558.210437 227.636705 565.683582 221.018284 565.683582 214.118182 
C 565.683582 207.218079 558.210437 200.599658 544.910021 195.720549 
C 531.609605 190.84144 513.567838 188.1 494.758209 188.1 
C 475.94858 188.1 457.906813 190.84144 444.606397 195.720549 
C 431.305981 200.599658 423.832836 207.218079 423.832836 214.118182 
C 423.832836 221.018284 431.305981 227.636705 444.606397 232.515815 
C 457.906813 237.394924 475.94858 240.136364 494.758209 240.136364 
z
" clip-path="url(#p3c78bcf553)" style="fill: #247fa1; opacity: 0.3; stroke: #247fa1; stroke-width: 2; stroke-linejoin: miter"/>
   </g>
   <g id="matplotlib.axis_1">
    <g id="xtick_1">
     <g id="line2d_1">
      <defs>
       <path id="m742409bcaf" d="M 0 0 
L 0 3.5 
" style="stroke: #435b60; stroke-width: 0.8"/>
      </defs>
      <g>
       <use xlink:href="#m742409bcaf" x="165.664478" y="522" style="fill: #435b60; stroke: #435b60; stroke-width: 0.8"/>
      </g>
     </g>
     <g id="text_1">
      <text style="font-size: 9px; font-family: 'DejaVu Sans'; text-anchor: middle; fill: #435b60" x="165.664478" y="535.838594" transform="rotate(-0 165.664478 535.838594)">Hot photic margin</text>
     </g>
    </g>
    <g id="xtick_2">
     <g id="line2d_2">
      <g>
       <use xlink:href="#m742409bcaf" x="381.277612" y="522" style="fill: #435b60; stroke: #435b60; stroke-width: 0.8"/>
      </g>
     </g>
     <g id="text_2">
      <text style="font-size: 9px; font-family: 'DejaVu Sans'; text-anchor: middle; fill: #435b60" x="381.277612" y="535.838594" transform="rotate(-0 381.277612 535.838594)">Productive mountain belt</text>
     </g>
    </g>
    <g id="xtick_3">
     <g id="line2d_3">
      <g>
       <use xlink:href="#m742409bcaf" x="585.542687" y="522" style="fill: #435b60; stroke: #435b60; stroke-width: 0.8"/>
      </g>
     </g>
     <g id="text_3">
      <text style="font-size: 9px; font-family: 'DejaVu Sans'; text-anchor: middle; fill: #435b60" x="585.542687" y="535.838594" transform="rotate(-0 585.542687 535.838594)">Terminator</text>
     </g>
    </g>
    <g id="xtick_4">
     <g id="line2d_4">
      <g>
       <use xlink:href="#m742409bcaf" x="755.763582" y="522" style="fill: #435b60; stroke: #435b60; stroke-width: 0.8"/>
      </g>
     </g>
     <g id="text_4">
      <text style="font-size: 9px; font-family: 'DejaVu Sans'; text-anchor: middle; fill: #435b60" x="755.763582" y="535.838594" transform="rotate(-0 755.763582 535.838594)">Dark fringe</text>
     </g>
    </g>
    <g id="text_5">
     <text style="font-size: 11px; font-family: 'DejaVu Sans'; text-anchor: middle; fill: #243c43" x="455.04" y="550.068594" transform="rotate(-0 455.04 550.068594)">Environmental direction; horizontal spacing is not distance</text>
    </g>
   </g>
   <g id="matplotlib.axis_2">
    <g id="ytick_1">
     <g id="line2d_5">
      <defs>
       <path id="mc7a2c16465" d="M 0 0 
L -3.5 0 
" style="stroke: #435b60; stroke-width: 0.8"/>
      </defs>
      <g>
       <use xlink:href="#mc7a2c16465" x="74.88" y="495.981818" style="fill: #435b60; stroke: #435b60; stroke-width: 0.8"/>
      </g>
     </g>
     <g id="text_6">
      <text style="font-size: 9px; font-family: 'DejaVu Sans'; text-anchor: end; fill: #435b60" x="67.88" y="499.401115" transform="rotate(-0 67.88 499.401115)">Shallow caves</text>
     </g>
    </g>
    <g id="ytick_2">
     <g id="line2d_6">
      <g>
       <use xlink:href="#mc7a2c16465" x="74.88" y="452.618182" style="fill: #435b60; stroke: #435b60; stroke-width: 0.8"/>
      </g>
     </g>
     <g id="text_7">
      <text style="font-size: 9px; font-family: 'DejaVu Sans'; text-anchor: end; fill: #435b60" x="67.88" y="456.037479" transform="rotate(-0 67.88 456.037479)">Local surface</text>
     </g>
    </g>
    <g id="ytick_3">
     <g id="line2d_7">
      <g>
       <use xlink:href="#mc7a2c16465" x="74.88" y="365.890909" style="fill: #435b60; stroke: #435b60; stroke-width: 0.8"/>
      </g>
     </g>
     <g id="text_8">
      <text style="font-size: 9px; font-family: 'DejaVu Sans'; text-anchor: end; fill: #435b60" x="67.88" y="369.310206" transform="rotate(-0 67.88 369.310206)">Uplands</text>
     </g>
    </g>
    <g id="ytick_4">
     <g id="line2d_8">
      <g>
       <use xlink:href="#mc7a2c16465" x="74.88" y="279.163636" style="fill: #435b60; stroke: #435b60; stroke-width: 0.8"/>
      </g>
     </g>
     <g id="text_9">
      <text style="font-size: 9px; font-family: 'DejaVu Sans'; text-anchor: end; fill: #435b60" x="67.88" y="282.582933" transform="rotate(-0 67.88 282.582933)">Highlands</text>
     </g>
    </g>
    <g id="ytick_5">
     <g id="line2d_9">
      <g>
       <use xlink:href="#mc7a2c16465" x="74.88" y="192.436364" style="fill: #435b60; stroke: #435b60; stroke-width: 0.8"/>
      </g>
     </g>
     <g id="text_10">
      <text style="font-size: 9px; font-family: 'DejaVu Sans'; text-anchor: end; fill: #435b60" x="67.88" y="195.855661" transform="rotate(-0 67.88 195.855661)">Highest zones</text>
     </g>
    </g>
   </g>
   <g id="line2d_10">
    <path d="M 585.542687 522 
L 585.542687 140.4 
" clip-path="url(#p3c78bcf553)" style="fill: none; stroke-dasharray: 3.7,1.6; stroke-dashoffset: 0; stroke: #233c43"/>
   </g>
   <g id="patch_13">
    <path d="M 74.88 522 
L 74.88 140.4 
" style="fill: none; stroke: #9ba9a8; stroke-width: 0.8; stroke-linejoin: miter; stroke-linecap: square"/>
   </g>
   <g id="patch_14">
    <path d="M 74.88 522 
L 835.2 522 
" style="fill: none; stroke: #9ba9a8; stroke-width: 0.8; stroke-linejoin: miter; stroke-linecap: square"/>
   </g>
   <g id="text_11">
    <text style="font-weight: 700; font-size: 10px; font-family: 'DejaVu Sans'; text-anchor: middle; fill: #243c43" x="188.360597" y="416.350284" transform="rotate(-0 188.360597 416.350284)">Sunward</text>
   </g>
   <g id="text_12">
    <text style="font-weight: 700; font-size: 10px; font-family: 'DejaVu Sans'; text-anchor: middle; fill: #243c43" x="313.189254" y="368.611222" transform="rotate(-0 313.189254 368.611222)">Volcanic-range</text>
   </g>
   <g id="text_13">
    <text style="font-weight: 700; font-size: 10px; font-family: 'DejaVu Sans'; text-anchor: middle; fill: #243c43" x="432.343881" y="394.668466" transform="rotate(-0 432.343881 394.668466)">Central-massif</text>
   </g>
   <g id="text_14">
    <text style="font-weight: 700; font-size: 10px; font-family: 'DejaVu Sans'; fill: #243c43" transform="translate(408.67944 480.133196)">Deep-massif</text>
    <text style="font-weight: 700; font-size: 10px; font-family: 'DejaVu Sans'; fill: #243c43" transform="translate(412.586472 491.331009)">subspecies</text>
   </g>
   <g id="text_15">
    <text style="font-weight: 700; font-size: 10px; font-family: 'DejaVu Sans'; text-anchor: middle; fill: #243c43" x="551.498507" y="390.29304" transform="rotate(-0 551.498507 390.29304)">Nightward</text>
   </g>
   <g id="text_16">
    <text style="font-weight: 700; font-size: 10px; font-family: 'DejaVu Sans'; text-anchor: middle; fill: #243c43" x="494.758209" y="216.838494" transform="rotate(-0 494.758209 216.838494)">High-mountain</text>
   </g>
   <g id="text_17">
    <text style="font-size: 10px; font-family: 'DejaVu Sans'; fill: #52738e" transform="translate(669.019592 274.113466)">NO NATIVE DWARF</text>
    <text style="font-size: 10px; font-family: 'DejaVu Sans'; fill: #52738e" transform="translate(665.096936 285.311278)">ORIGIN IN ISOLATED</text>
    <text style="font-size: 10px; font-family: 'DejaVu Sans'; fill: #52738e" transform="translate(655.242248 296.509091)">DEEP-NIGHTSIDE OASES</text>
   </g>
  </g>
  <g id="text_18">
   <text style="font-weight: 700; font-size: 11px; font-family: 'DejaVu Sans'; text-anchor: start; fill: #536a6e" x="51.84" y="35.28" transform="rotate(-0 51.84 35.28)">ANDEL'S SONG / FIELD ATLAS</text>
  </g>
  <g id="text_19">
   <text style="font-weight: 700; font-size: 11px; font-family: 'DejaVu Sans'; text-anchor: end; fill: #243c43" x="1100.16" y="35.28" transform="rotate(-0 1100.16 35.28)">DWARVEN PLANET  /  D6</text>
  </g>
  <g id="text_20">
   <text style="font-weight: 700; font-size: 27px; font-family: 'DejaVu Sans'; text-anchor: start; fill: #243c43" x="51.84" y="76.32" transform="rotate(-0 51.84 76.32)">Six living forms, overlapping habitat preferences</text>
  </g>
  <g id="text_21">
   <text style="font-size: 12px; font-family: 'DejaVu Sans'; text-anchor: start; fill: #536a6e" x="51.84" y="104.4" transform="rotate(-0 51.84 104.4)">An ecological placement map, not exclusive species territories or a finished anatomical comparison.</text>
  </g>
  <g id="text_22">
   <text style="font-size: 9px; font-family: 'DejaVu Sans'; text-anchor: start; fill: #536a6e" x="51.84" y="695.52" transform="rotate(-0 51.84 695.52)">SELECTED: five species and one subspecies. HORIZONTAL POSITIONS AND HABITAT PATCH SIZES ARE SCHEMATIC. [35-37]</text>
  </g>
  <g id="text_23">
   <text style="font-weight: 700; font-size: 10px; font-family: 'DejaVu Sans'; text-anchor: end; fill: #243c43" x="1100.16" y="695.52" transform="rotate(-0 1100.16 695.52)">D6</text>
  </g>
  <g id="text_24">
   <text style="font-size: 9px; font-family: 'DejaVu Sans'; text-anchor: start; fill: #536a6e" x="74.88" y="133.2" transform="rotate(-0 74.88 133.2)">Habitat level is qualitative, not an elevation scale</text>
  </g>
  <g id="text_25">
   <text style="font-weight: 700; font-size: 11px; font-family: 'DejaVu Sans'; text-anchor: start; fill: #243c43" x="881.28" y="159.558281" transform="rotate(-0 881.28 159.558281)">Warm branch</text>
  </g>
  <g id="text_26">
   <text style="font-size: 10.5px; font-family: 'DejaVu Sans'; fill: #536a6e" transform="translate(881.28 180.058359)">Sunward and volcanic-range</text>
   <text style="font-size: 10.5px; font-family: 'DejaVu Sans'; fill: #536a6e" transform="translate(881.28 193.810652)">species are closest relatives.</text>
   <text style="font-size: 10.5px; font-family: 'DejaVu Sans'; fill: #536a6e" transform="translate(881.28 207.562945)">Water conservation and heat</text>
   <text style="font-size: 10.5px; font-family: 'DejaVu Sans'; fill: #536a6e" transform="translate(881.28 221.315238)">loss come with tradeoffs.</text>
  </g>
  <g id="text_27">
   <text style="font-weight: 700; font-size: 11px; font-family: 'DejaVu Sans'; text-anchor: start; fill: #243c43" x="881.28" y="303.558281" transform="rotate(-0 881.28 303.558281)">Central branch</text>
  </g>
  <g id="text_28">
   <text style="font-size: 10.5px; font-family: 'DejaVu Sans'; fill: #536a6e" transform="translate(881.28 324.058359)">Deep-massif is a subspecies of</text>
   <text style="font-size: 10.5px; font-family: 'DejaVu Sans'; fill: #536a6e" transform="translate(881.28 337.810652)">central-massif, originating in</text>
   <text style="font-size: 10.5px; font-family: 'DejaVu Sans'; fill: #536a6e" transform="translate(881.28 351.562945)">surface-fed caves and aquifers</text>
   <text style="font-size: 10.5px; font-family: 'DejaVu Sans'; fill: #536a6e" transform="translate(881.28 365.315238)">tens to hundreds of metres</text>
   <text style="font-size: 10.5px; font-family: 'DejaVu Sans'; fill: #536a6e" transform="translate(881.28 379.067531)">deep.</text>
  </g>
  <g id="text_29">
   <text style="font-weight: 700; font-size: 11px; font-family: 'DejaVu Sans'; text-anchor: start; fill: #243c43" x="881.28" y="461.958281" transform="rotate(-0 881.28 461.958281)">Cold-upland branch</text>
  </g>
  <g id="text_30">
   <text style="font-size: 10.5px; font-family: 'DejaVu Sans'; fill: #536a6e" transform="translate(881.28 482.458359)">Nightward evolved near the</text>
   <text style="font-size: 10.5px; font-family: 'DejaVu Sans'; fill: #536a6e" transform="translate(881.28 496.210652)">cold photic margin. High-</text>
   <text style="font-size: 10.5px; font-family: 'DejaVu Sans'; fill: #536a6e" transform="translate(881.28 509.962945)">mountain evolved in cold,</text>
   <text style="font-size: 10.5px; font-family: 'DejaVu Sans'; fill: #536a6e" transform="translate(881.28 523.715238)">naturally unpressurized</text>
   <text style="font-size: 10.5px; font-family: 'DejaVu Sans'; fill: #536a6e" transform="translate(881.28 537.467531)">highlands.</text>
  </g>
  <g id="text_31">
   <text style="font-weight: 700; font-size: 11px; font-family: 'DejaVu Sans'; text-anchor: start; fill: #243c43" x="74.88" y="605.958281" transform="rotate(-0 74.88 605.958281)">Range overlap is expected</text>
  </g>
  <g id="text_32">
   <text style="font-size: 10.5px; font-family: 'DejaVu Sans'; fill: #536a6e" transform="translate(74.88 626.458359)">Historical isolation, mating barriers, and later contact matter. The Thals are immigrants from Erde and do</text>
   <text style="font-size: 10.5px; font-family: 'DejaVu Sans'; fill: #536a6e" transform="translate(74.88 640.210652)">not belong to this native dwarf radiation.</text>
  </g>
 </g>
 <defs>
  <clipPath id="p3c78bcf553">
   <rect x="74.88" y="140.4" width="760.32" height="381.6"/>
  </clipPath>
 </defs>
</svg>
