<svg xmlns="http://www.w3.org/2000/svg" viewBox="0 0 960 920" role="img" aria-labelledby="script-title"><title id="script-title">Stavmark alphabet, regional extensions, numerals and sample</title><rect width="960" height="920" fill="#f9f6ec"/>
<text x="28" y="35" font-family="DejaVu Sans, sans-serif" font-size="24" fill="#183f43">STAVMARK · REFERENCE HAND</text>
<text x="28" y="60" font-family="DejaVu Sans, sans-serif" font-size="15" fill="#183f43">24 Common signs · sh and dh extend the same alphabet</text>
<line x1="57.00" y1="97.00" x2="57.00" y2="147.00" stroke="#183f43" stroke-width="2.7" stroke-linecap="round"/><line x1="57.00" y1="97.00" x2="48.00" y2="90.00" stroke="#183f43" stroke-width="2.7" stroke-linecap="round"/><line x1="57.00" y1="109.00" x2="44.00" y2="100.00" stroke="#183f43" stroke-width="2.7" stroke-linecap="round"/><line x1="57.00" y1="123.00" x2="44.00" y2="114.00" stroke="#183f43" stroke-width="2.7" stroke-linecap="round"/>
<text x="87" y="124" font-family="DejaVu Sans, sans-serif" font-size="23" fill="#183f43">a</text>
<text x="87" y="144" font-family="DejaVu Sans, sans-serif" font-size="10" fill="#183f43"></text>
<line x1="172.00" y1="97.00" x2="172.00" y2="147.00" stroke="#183f43" stroke-width="2.7" stroke-linecap="round"/><line x1="172.00" y1="97.00" x2="163.00" y2="90.00" stroke="#183f43" stroke-width="2.7" stroke-linecap="round"/><line x1="172.00" y1="109.00" x2="159.00" y2="100.00" stroke="#183f43" stroke-width="2.7" stroke-linecap="round"/><line x1="172.00" y1="137.00" x2="159.00" y2="128.00" stroke="#183f43" stroke-width="2.7" stroke-linecap="round"/>
<text x="202" y="124" font-family="DejaVu Sans, sans-serif" font-size="23" fill="#183f43">e</text>
<text x="202" y="144" font-family="DejaVu Sans, sans-serif" font-size="10" fill="#183f43"></text>
<line x1="287.00" y1="97.00" x2="287.00" y2="147.00" stroke="#183f43" stroke-width="2.7" stroke-linecap="round"/><line x1="287.00" y1="97.00" x2="278.00" y2="90.00" stroke="#183f43" stroke-width="2.7" stroke-linecap="round"/><line x1="287.00" y1="123.00" x2="274.00" y2="114.00" stroke="#183f43" stroke-width="2.7" stroke-linecap="round"/><line x1="287.00" y1="137.00" x2="274.00" y2="128.00" stroke="#183f43" stroke-width="2.7" stroke-linecap="round"/>
<text x="317" y="124" font-family="DejaVu Sans, sans-serif" font-size="23" fill="#183f43">i</text>
<text x="317" y="144" font-family="DejaVu Sans, sans-serif" font-size="10" fill="#183f43"></text>
<line x1="402.00" y1="97.00" x2="402.00" y2="147.00" stroke="#183f43" stroke-width="2.7" stroke-linecap="round"/><line x1="402.00" y1="97.00" x2="393.00" y2="90.00" stroke="#183f43" stroke-width="2.7" stroke-linecap="round"/><line x1="402.00" y1="109.00" x2="389.00" y2="100.00" stroke="#183f43" stroke-width="2.7" stroke-linecap="round"/><line x1="402.00" y1="109.00" x2="415.00" y2="100.00" stroke="#183f43" stroke-width="2.7" stroke-linecap="round"/>
<text x="432" y="124" font-family="DejaVu Sans, sans-serif" font-size="23" fill="#183f43">o</text>
<text x="432" y="144" font-family="DejaVu Sans, sans-serif" font-size="10" fill="#183f43"></text>
<line x1="517.00" y1="97.00" x2="517.00" y2="147.00" stroke="#183f43" stroke-width="2.7" stroke-linecap="round"/><line x1="517.00" y1="97.00" x2="508.00" y2="90.00" stroke="#183f43" stroke-width="2.7" stroke-linecap="round"/><line x1="517.00" y1="123.00" x2="504.00" y2="114.00" stroke="#183f43" stroke-width="2.7" stroke-linecap="round"/><line x1="517.00" y1="109.00" x2="530.00" y2="100.00" stroke="#183f43" stroke-width="2.7" stroke-linecap="round"/>
<text x="547" y="124" font-family="DejaVu Sans, sans-serif" font-size="23" fill="#183f43">u</text>
<text x="547" y="144" font-family="DejaVu Sans, sans-serif" font-size="10" fill="#183f43"></text>
<line x1="632.00" y1="97.00" x2="632.00" y2="147.00" stroke="#183f43" stroke-width="2.7" stroke-linecap="round"/><line x1="632.00" y1="97.00" x2="623.00" y2="90.00" stroke="#183f43" stroke-width="2.7" stroke-linecap="round"/><line x1="632.00" y1="137.00" x2="619.00" y2="128.00" stroke="#183f43" stroke-width="2.7" stroke-linecap="round"/><line x1="632.00" y1="109.00" x2="645.00" y2="100.00" stroke="#183f43" stroke-width="2.7" stroke-linecap="round"/>
<text x="662" y="124" font-family="DejaVu Sans, sans-serif" font-size="23" fill="#183f43">ä</text>
<text x="662" y="144" font-family="DejaVu Sans, sans-serif" font-size="10" fill="#183f43"></text>
<line x1="747.00" y1="97.00" x2="747.00" y2="147.00" stroke="#183f43" stroke-width="2.7" stroke-linecap="round"/><line x1="747.00" y1="97.00" x2="738.00" y2="90.00" stroke="#183f43" stroke-width="2.7" stroke-linecap="round"/><line x1="747.00" y1="109.00" x2="734.00" y2="100.00" stroke="#183f43" stroke-width="2.7" stroke-linecap="round"/><line x1="747.00" y1="123.00" x2="734.00" y2="114.00" stroke="#183f43" stroke-width="2.7" stroke-linecap="round"/><line x1="747.00" y1="137.00" x2="734.00" y2="128.00" stroke="#183f43" stroke-width="2.7" stroke-linecap="round"/><line x1="747.00" y1="109.00" x2="760.00" y2="100.00" stroke="#183f43" stroke-width="2.7" stroke-linecap="round"/>
<text x="777" y="124" font-family="DejaVu Sans, sans-serif" font-size="23" fill="#183f43">ö</text>
<text x="777" y="144" font-family="DejaVu Sans, sans-serif" font-size="10" fill="#183f43"></text>
<line x1="862.00" y1="97.00" x2="862.00" y2="147.00" stroke="#183f43" stroke-width="2.7" stroke-linecap="round"/><line x1="862.00" y1="97.00" x2="853.00" y2="90.00" stroke="#183f43" stroke-width="2.7" stroke-linecap="round"/><line x1="862.00" y1="109.00" x2="849.00" y2="100.00" stroke="#183f43" stroke-width="2.7" stroke-linecap="round"/><line x1="862.00" y1="123.00" x2="875.00" y2="114.00" stroke="#183f43" stroke-width="2.7" stroke-linecap="round"/>
<text x="892" y="124" font-family="DejaVu Sans, sans-serif" font-size="23" fill="#183f43">y</text>
<text x="892" y="144" font-family="DejaVu Sans, sans-serif" font-size="10" fill="#183f43"></text>
<line x1="57.00" y1="202.00" x2="57.00" y2="252.00" stroke="#183f43" stroke-width="2.7" stroke-linecap="round"/><line x1="57.00" y1="202.00" x2="48.00" y2="195.00" stroke="#183f43" stroke-width="2.7" stroke-linecap="round"/><line x1="57.00" y1="228.00" x2="44.00" y2="219.00" stroke="#183f43" stroke-width="2.7" stroke-linecap="round"/><line x1="57.00" y1="228.00" x2="70.00" y2="219.00" stroke="#183f43" stroke-width="2.7" stroke-linecap="round"/>
<text x="87" y="229" font-family="DejaVu Sans, sans-serif" font-size="23" fill="#183f43">p</text>
<text x="87" y="249" font-family="DejaVu Sans, sans-serif" font-size="10" fill="#183f43"></text>
<line x1="172.00" y1="202.00" x2="172.00" y2="252.00" stroke="#183f43" stroke-width="2.7" stroke-linecap="round"/><line x1="172.00" y1="202.00" x2="163.00" y2="195.00" stroke="#183f43" stroke-width="2.7" stroke-linecap="round"/><line x1="172.00" y1="242.00" x2="159.00" y2="233.00" stroke="#183f43" stroke-width="2.7" stroke-linecap="round"/><line x1="172.00" y1="228.00" x2="185.00" y2="219.00" stroke="#183f43" stroke-width="2.7" stroke-linecap="round"/>
<text x="202" y="229" font-family="DejaVu Sans, sans-serif" font-size="23" fill="#183f43">b</text>
<text x="202" y="249" font-family="DejaVu Sans, sans-serif" font-size="10" fill="#183f43"></text>
<line x1="287.00" y1="202.00" x2="287.00" y2="252.00" stroke="#183f43" stroke-width="2.7" stroke-linecap="round"/><line x1="287.00" y1="202.00" x2="278.00" y2="195.00" stroke="#183f43" stroke-width="2.7" stroke-linecap="round"/><line x1="287.00" y1="214.00" x2="274.00" y2="205.00" stroke="#183f43" stroke-width="2.7" stroke-linecap="round"/><line x1="287.00" y1="228.00" x2="274.00" y2="219.00" stroke="#183f43" stroke-width="2.7" stroke-linecap="round"/><line x1="287.00" y1="242.00" x2="274.00" y2="233.00" stroke="#183f43" stroke-width="2.7" stroke-linecap="round"/><line x1="287.00" y1="228.00" x2="300.00" y2="219.00" stroke="#183f43" stroke-width="2.7" stroke-linecap="round"/>
<text x="317" y="229" font-family="DejaVu Sans, sans-serif" font-size="23" fill="#183f43">t</text>
<text x="317" y="249" font-family="DejaVu Sans, sans-serif" font-size="10" fill="#183f43"></text>
<line x1="402.00" y1="202.00" x2="402.00" y2="252.00" stroke="#183f43" stroke-width="2.7" stroke-linecap="round"/><line x1="402.00" y1="202.00" x2="393.00" y2="195.00" stroke="#183f43" stroke-width="2.7" stroke-linecap="round"/><line x1="402.00" y1="214.00" x2="415.00" y2="205.00" stroke="#183f43" stroke-width="2.7" stroke-linecap="round"/><line x1="402.00" y1="228.00" x2="415.00" y2="219.00" stroke="#183f43" stroke-width="2.7" stroke-linecap="round"/>
<text x="432" y="229" font-family="DejaVu Sans, sans-serif" font-size="23" fill="#183f43">d</text>
<text x="432" y="249" font-family="DejaVu Sans, sans-serif" font-size="10" fill="#183f43"></text>
<line x1="517.00" y1="202.00" x2="517.00" y2="252.00" stroke="#183f43" stroke-width="2.7" stroke-linecap="round"/><line x1="517.00" y1="202.00" x2="508.00" y2="195.00" stroke="#183f43" stroke-width="2.7" stroke-linecap="round"/><line x1="517.00" y1="214.00" x2="504.00" y2="205.00" stroke="#183f43" stroke-width="2.7" stroke-linecap="round"/><line x1="517.00" y1="228.00" x2="504.00" y2="219.00" stroke="#183f43" stroke-width="2.7" stroke-linecap="round"/><line x1="517.00" y1="214.00" x2="530.00" y2="205.00" stroke="#183f43" stroke-width="2.7" stroke-linecap="round"/><line x1="517.00" y1="228.00" x2="530.00" y2="219.00" stroke="#183f43" stroke-width="2.7" stroke-linecap="round"/>
<text x="547" y="229" font-family="DejaVu Sans, sans-serif" font-size="23" fill="#183f43">k</text>
<text x="547" y="249" font-family="DejaVu Sans, sans-serif" font-size="10" fill="#183f43"></text>
<line x1="632.00" y1="202.00" x2="632.00" y2="252.00" stroke="#183f43" stroke-width="2.7" stroke-linecap="round"/><line x1="632.00" y1="202.00" x2="623.00" y2="195.00" stroke="#183f43" stroke-width="2.7" stroke-linecap="round"/><line x1="632.00" y1="214.00" x2="619.00" y2="205.00" stroke="#183f43" stroke-width="2.7" stroke-linecap="round"/><line x1="632.00" y1="242.00" x2="619.00" y2="233.00" stroke="#183f43" stroke-width="2.7" stroke-linecap="round"/><line x1="632.00" y1="214.00" x2="645.00" y2="205.00" stroke="#183f43" stroke-width="2.7" stroke-linecap="round"/><line x1="632.00" y1="228.00" x2="645.00" y2="219.00" stroke="#183f43" stroke-width="2.7" stroke-linecap="round"/>
<text x="662" y="229" font-family="DejaVu Sans, sans-serif" font-size="23" fill="#183f43">g</text>
<text x="662" y="249" font-family="DejaVu Sans, sans-serif" font-size="10" fill="#183f43"></text>
<line x1="747.00" y1="202.00" x2="747.00" y2="252.00" stroke="#183f43" stroke-width="2.7" stroke-linecap="round"/><line x1="747.00" y1="202.00" x2="738.00" y2="195.00" stroke="#183f43" stroke-width="2.7" stroke-linecap="round"/><line x1="747.00" y1="228.00" x2="734.00" y2="219.00" stroke="#183f43" stroke-width="2.7" stroke-linecap="round"/><line x1="747.00" y1="242.00" x2="734.00" y2="233.00" stroke="#183f43" stroke-width="2.7" stroke-linecap="round"/><line x1="747.00" y1="214.00" x2="760.00" y2="205.00" stroke="#183f43" stroke-width="2.7" stroke-linecap="round"/><line x1="747.00" y1="228.00" x2="760.00" y2="219.00" stroke="#183f43" stroke-width="2.7" stroke-linecap="round"/>
<text x="777" y="229" font-family="DejaVu Sans, sans-serif" font-size="23" fill="#183f43">f</text>
<text x="777" y="249" font-family="DejaVu Sans, sans-serif" font-size="10" fill="#183f43"></text>
<line x1="862.00" y1="202.00" x2="862.00" y2="252.00" stroke="#183f43" stroke-width="2.7" stroke-linecap="round"/><line x1="862.00" y1="202.00" x2="853.00" y2="195.00" stroke="#183f43" stroke-width="2.7" stroke-linecap="round"/><line x1="862.00" y1="214.00" x2="849.00" y2="205.00" stroke="#183f43" stroke-width="2.7" stroke-linecap="round"/><line x1="862.00" y1="242.00" x2="875.00" y2="233.00" stroke="#183f43" stroke-width="2.7" stroke-linecap="round"/>
<text x="892" y="229" font-family="DejaVu Sans, sans-serif" font-size="23" fill="#183f43">v</text>
<text x="892" y="249" font-family="DejaVu Sans, sans-serif" font-size="10" fill="#183f43"></text>
<line x1="57.00" y1="307.00" x2="57.00" y2="357.00" stroke="#183f43" stroke-width="2.7" stroke-linecap="round"/><line x1="57.00" y1="307.00" x2="48.00" y2="300.00" stroke="#183f43" stroke-width="2.7" stroke-linecap="round"/><line x1="57.00" y1="333.00" x2="44.00" y2="324.00" stroke="#183f43" stroke-width="2.7" stroke-linecap="round"/><line x1="57.00" y1="347.00" x2="70.00" y2="338.00" stroke="#183f43" stroke-width="2.7" stroke-linecap="round"/>
<text x="87" y="334" font-family="DejaVu Sans, sans-serif" font-size="23" fill="#183f43">s</text>
<text x="87" y="354" font-family="DejaVu Sans, sans-serif" font-size="10" fill="#183f43"></text>
<line x1="172.00" y1="307.00" x2="172.00" y2="357.00" stroke="#183f43" stroke-width="2.7" stroke-linecap="round"/><line x1="172.00" y1="307.00" x2="163.00" y2="300.00" stroke="#183f43" stroke-width="2.7" stroke-linecap="round"/><line x1="172.00" y1="347.00" x2="159.00" y2="338.00" stroke="#183f43" stroke-width="2.7" stroke-linecap="round"/><line x1="172.00" y1="347.00" x2="185.00" y2="338.00" stroke="#183f43" stroke-width="2.7" stroke-linecap="round"/>
<text x="202" y="334" font-family="DejaVu Sans, sans-serif" font-size="23" fill="#183f43">h</text>
<text x="202" y="354" font-family="DejaVu Sans, sans-serif" font-size="10" fill="#183f43"></text>
<line x1="287.00" y1="307.00" x2="287.00" y2="357.00" stroke="#183f43" stroke-width="2.7" stroke-linecap="round"/><line x1="287.00" y1="307.00" x2="278.00" y2="300.00" stroke="#183f43" stroke-width="2.7" stroke-linecap="round"/><line x1="287.00" y1="319.00" x2="274.00" y2="310.00" stroke="#183f43" stroke-width="2.7" stroke-linecap="round"/><line x1="287.00" y1="333.00" x2="274.00" y2="324.00" stroke="#183f43" stroke-width="2.7" stroke-linecap="round"/><line x1="287.00" y1="347.00" x2="274.00" y2="338.00" stroke="#183f43" stroke-width="2.7" stroke-linecap="round"/><line x1="287.00" y1="347.00" x2="300.00" y2="338.00" stroke="#183f43" stroke-width="2.7" stroke-linecap="round"/>
<text x="317" y="334" font-family="DejaVu Sans, sans-serif" font-size="23" fill="#183f43">m</text>
<text x="317" y="354" font-family="DejaVu Sans, sans-serif" font-size="10" fill="#183f43"></text>
<line x1="402.00" y1="307.00" x2="402.00" y2="357.00" stroke="#183f43" stroke-width="2.7" stroke-linecap="round"/><line x1="402.00" y1="307.00" x2="393.00" y2="300.00" stroke="#183f43" stroke-width="2.7" stroke-linecap="round"/><line x1="402.00" y1="319.00" x2="415.00" y2="310.00" stroke="#183f43" stroke-width="2.7" stroke-linecap="round"/><line x1="402.00" y1="347.00" x2="415.00" y2="338.00" stroke="#183f43" stroke-width="2.7" stroke-linecap="round"/>
<text x="432" y="334" font-family="DejaVu Sans, sans-serif" font-size="23" fill="#183f43">n</text>
<text x="432" y="354" font-family="DejaVu Sans, sans-serif" font-size="10" fill="#183f43"></text>
<line x1="517.00" y1="307.00" x2="517.00" y2="357.00" stroke="#183f43" stroke-width="2.7" stroke-linecap="round"/><line x1="517.00" y1="307.00" x2="508.00" y2="300.00" stroke="#183f43" stroke-width="2.7" stroke-linecap="round"/><line x1="517.00" y1="319.00" x2="504.00" y2="310.00" stroke="#183f43" stroke-width="2.7" stroke-linecap="round"/><line x1="517.00" y1="333.00" x2="504.00" y2="324.00" stroke="#183f43" stroke-width="2.7" stroke-linecap="round"/><line x1="517.00" y1="319.00" x2="530.00" y2="310.00" stroke="#183f43" stroke-width="2.7" stroke-linecap="round"/><line x1="517.00" y1="347.00" x2="530.00" y2="338.00" stroke="#183f43" stroke-width="2.7" stroke-linecap="round"/>
<text x="547" y="334" font-family="DejaVu Sans, sans-serif" font-size="23" fill="#183f43">ng</text>
<text x="547" y="354" font-family="DejaVu Sans, sans-serif" font-size="10" fill="#183f43"></text>
<line x1="632.00" y1="307.00" x2="632.00" y2="357.00" stroke="#183f43" stroke-width="2.7" stroke-linecap="round"/><line x1="632.00" y1="307.00" x2="623.00" y2="300.00" stroke="#183f43" stroke-width="2.7" stroke-linecap="round"/><line x1="632.00" y1="319.00" x2="619.00" y2="310.00" stroke="#183f43" stroke-width="2.7" stroke-linecap="round"/><line x1="632.00" y1="347.00" x2="619.00" y2="338.00" stroke="#183f43" stroke-width="2.7" stroke-linecap="round"/><line x1="632.00" y1="319.00" x2="645.00" y2="310.00" stroke="#183f43" stroke-width="2.7" stroke-linecap="round"/><line x1="632.00" y1="347.00" x2="645.00" y2="338.00" stroke="#183f43" stroke-width="2.7" stroke-linecap="round"/>
<text x="662" y="334" font-family="DejaVu Sans, sans-serif" font-size="23" fill="#183f43">l</text>
<text x="662" y="354" font-family="DejaVu Sans, sans-serif" font-size="10" fill="#183f43"></text>
<line x1="747.00" y1="307.00" x2="747.00" y2="357.00" stroke="#183f43" stroke-width="2.7" stroke-linecap="round"/><line x1="747.00" y1="307.00" x2="738.00" y2="300.00" stroke="#183f43" stroke-width="2.7" stroke-linecap="round"/><line x1="747.00" y1="333.00" x2="734.00" y2="324.00" stroke="#183f43" stroke-width="2.7" stroke-linecap="round"/><line x1="747.00" y1="347.00" x2="734.00" y2="338.00" stroke="#183f43" stroke-width="2.7" stroke-linecap="round"/><line x1="747.00" y1="319.00" x2="760.00" y2="310.00" stroke="#183f43" stroke-width="2.7" stroke-linecap="round"/><line x1="747.00" y1="347.00" x2="760.00" y2="338.00" stroke="#183f43" stroke-width="2.7" stroke-linecap="round"/>
<text x="777" y="334" font-family="DejaVu Sans, sans-serif" font-size="23" fill="#183f43">r</text>
<text x="777" y="354" font-family="DejaVu Sans, sans-serif" font-size="10" fill="#183f43"></text>
<line x1="862.00" y1="307.00" x2="862.00" y2="357.00" stroke="#183f43" stroke-width="2.7" stroke-linecap="round"/><line x1="862.00" y1="307.00" x2="853.00" y2="300.00" stroke="#183f43" stroke-width="2.7" stroke-linecap="round"/><line x1="862.00" y1="333.00" x2="875.00" y2="324.00" stroke="#183f43" stroke-width="2.7" stroke-linecap="round"/><line x1="862.00" y1="347.00" x2="875.00" y2="338.00" stroke="#183f43" stroke-width="2.7" stroke-linecap="round"/>
<text x="892" y="334" font-family="DejaVu Sans, sans-serif" font-size="23" fill="#183f43">j</text>
<text x="892" y="354" font-family="DejaVu Sans, sans-serif" font-size="10" fill="#183f43"></text>
<line x1="57.00" y1="412.00" x2="57.00" y2="462.00" stroke="#183f43" stroke-width="2.7" stroke-linecap="round"/><line x1="57.00" y1="412.00" x2="48.00" y2="405.00" stroke="#183f43" stroke-width="2.7" stroke-linecap="round"/><line x1="57.00" y1="424.00" x2="44.00" y2="415.00" stroke="#183f43" stroke-width="2.7" stroke-linecap="round"/><line x1="57.00" y1="438.00" x2="44.00" y2="429.00" stroke="#183f43" stroke-width="2.7" stroke-linecap="round"/><line x1="57.00" y1="438.00" x2="70.00" y2="429.00" stroke="#183f43" stroke-width="2.7" stroke-linecap="round"/><line x1="57.00" y1="452.00" x2="70.00" y2="443.00" stroke="#183f43" stroke-width="2.7" stroke-linecap="round"/>
<text x="87" y="439" font-family="DejaVu Sans, sans-serif" font-size="23" fill="#183f43">sh</text>
<text x="87" y="459" font-family="DejaVu Sans, sans-serif" font-size="10" fill="#183f43">regional</text>
<line x1="172.00" y1="412.00" x2="172.00" y2="462.00" stroke="#183f43" stroke-width="2.7" stroke-linecap="round"/><line x1="172.00" y1="412.00" x2="163.00" y2="405.00" stroke="#183f43" stroke-width="2.7" stroke-linecap="round"/><line x1="172.00" y1="424.00" x2="159.00" y2="415.00" stroke="#183f43" stroke-width="2.7" stroke-linecap="round"/><line x1="172.00" y1="452.00" x2="159.00" y2="443.00" stroke="#183f43" stroke-width="2.7" stroke-linecap="round"/><line x1="172.00" y1="438.00" x2="185.00" y2="429.00" stroke="#183f43" stroke-width="2.7" stroke-linecap="round"/><line x1="172.00" y1="452.00" x2="185.00" y2="443.00" stroke="#183f43" stroke-width="2.7" stroke-linecap="round"/>
<text x="202" y="439" font-family="DejaVu Sans, sans-serif" font-size="23" fill="#183f43">dh</text>
<text x="202" y="459" font-family="DejaVu Sans, sans-serif" font-size="10" fill="#183f43">regional</text>
<text x="28" y="522" font-family="DejaVu Sans, sans-serif" font-size="18" fill="#183f43">DECIMAL FIGURES · distinct baseline</text>
<line x1="41.00" y1="548.00" x2="61.00" y2="548.00" stroke="#183f43" stroke-width="2.7" stroke-linecap="round"/><line x1="61.00" y1="548.00" x2="61.00" y2="569.00" stroke="#183f43" stroke-width="2.7" stroke-linecap="round"/><line x1="61.00" y1="569.00" x2="61.00" y2="590.00" stroke="#183f43" stroke-width="2.7" stroke-linecap="round"/><line x1="41.00" y1="590.00" x2="61.00" y2="590.00" stroke="#183f43" stroke-width="2.7" stroke-linecap="round"/><line x1="41.00" y1="569.00" x2="41.00" y2="590.00" stroke="#183f43" stroke-width="2.7" stroke-linecap="round"/><line x1="41.00" y1="548.00" x2="41.00" y2="569.00" stroke="#183f43" stroke-width="2.7" stroke-linecap="round"/><line x1="37.00" y1="600.00" x2="66.00" y2="600.00" stroke="#183f43" stroke-width="2.7" stroke-linecap="round"/>
<text x="45" y="628" font-family="DejaVu Sans, sans-serif" font-size="17" fill="#183f43">0</text>
<line x1="153.00" y1="548.00" x2="153.00" y2="569.00" stroke="#183f43" stroke-width="2.7" stroke-linecap="round"/><line x1="153.00" y1="569.00" x2="153.00" y2="590.00" stroke="#183f43" stroke-width="2.7" stroke-linecap="round"/><line x1="129.00" y1="600.00" x2="158.00" y2="600.00" stroke="#183f43" stroke-width="2.7" stroke-linecap="round"/>
<text x="137" y="628" font-family="DejaVu Sans, sans-serif" font-size="17" fill="#183f43">1</text>
<line x1="225.00" y1="548.00" x2="245.00" y2="548.00" stroke="#183f43" stroke-width="2.7" stroke-linecap="round"/><line x1="245.00" y1="548.00" x2="245.00" y2="569.00" stroke="#183f43" stroke-width="2.7" stroke-linecap="round"/><line x1="225.00" y1="569.00" x2="245.00" y2="569.00" stroke="#183f43" stroke-width="2.7" stroke-linecap="round"/><line x1="225.00" y1="569.00" x2="225.00" y2="590.00" stroke="#183f43" stroke-width="2.7" stroke-linecap="round"/><line x1="225.00" y1="590.00" x2="245.00" y2="590.00" stroke="#183f43" stroke-width="2.7" stroke-linecap="round"/><line x1="221.00" y1="600.00" x2="250.00" y2="600.00" stroke="#183f43" stroke-width="2.7" stroke-linecap="round"/>
<text x="229" y="628" font-family="DejaVu Sans, sans-serif" font-size="17" fill="#183f43">2</text>
<line x1="317.00" y1="548.00" x2="337.00" y2="548.00" stroke="#183f43" stroke-width="2.7" stroke-linecap="round"/><line x1="337.00" y1="548.00" x2="337.00" y2="569.00" stroke="#183f43" stroke-width="2.7" stroke-linecap="round"/><line x1="317.00" y1="569.00" x2="337.00" y2="569.00" stroke="#183f43" stroke-width="2.7" stroke-linecap="round"/><line x1="337.00" y1="569.00" x2="337.00" y2="590.00" stroke="#183f43" stroke-width="2.7" stroke-linecap="round"/><line x1="317.00" y1="590.00" x2="337.00" y2="590.00" stroke="#183f43" stroke-width="2.7" stroke-linecap="round"/><line x1="313.00" y1="600.00" x2="342.00" y2="600.00" stroke="#183f43" stroke-width="2.7" stroke-linecap="round"/>
<text x="321" y="628" font-family="DejaVu Sans, sans-serif" font-size="17" fill="#183f43">3</text>
<line x1="409.00" y1="548.00" x2="409.00" y2="569.00" stroke="#183f43" stroke-width="2.7" stroke-linecap="round"/><line x1="409.00" y1="569.00" x2="429.00" y2="569.00" stroke="#183f43" stroke-width="2.7" stroke-linecap="round"/><line x1="429.00" y1="548.00" x2="429.00" y2="569.00" stroke="#183f43" stroke-width="2.7" stroke-linecap="round"/><line x1="429.00" y1="569.00" x2="429.00" y2="590.00" stroke="#183f43" stroke-width="2.7" stroke-linecap="round"/><line x1="405.00" y1="600.00" x2="434.00" y2="600.00" stroke="#183f43" stroke-width="2.7" stroke-linecap="round"/>
<text x="413" y="628" font-family="DejaVu Sans, sans-serif" font-size="17" fill="#183f43">4</text>
<line x1="501.00" y1="548.00" x2="521.00" y2="548.00" stroke="#183f43" stroke-width="2.7" stroke-linecap="round"/><line x1="501.00" y1="548.00" x2="501.00" y2="569.00" stroke="#183f43" stroke-width="2.7" stroke-linecap="round"/><line x1="501.00" y1="569.00" x2="521.00" y2="569.00" stroke="#183f43" stroke-width="2.7" stroke-linecap="round"/><line x1="521.00" y1="569.00" x2="521.00" y2="590.00" stroke="#183f43" stroke-width="2.7" stroke-linecap="round"/><line x1="501.00" y1="590.00" x2="521.00" y2="590.00" stroke="#183f43" stroke-width="2.7" stroke-linecap="round"/><line x1="497.00" y1="600.00" x2="526.00" y2="600.00" stroke="#183f43" stroke-width="2.7" stroke-linecap="round"/>
<text x="505" y="628" font-family="DejaVu Sans, sans-serif" font-size="17" fill="#183f43">5</text>
<line x1="593.00" y1="548.00" x2="613.00" y2="548.00" stroke="#183f43" stroke-width="2.7" stroke-linecap="round"/><line x1="593.00" y1="548.00" x2="593.00" y2="569.00" stroke="#183f43" stroke-width="2.7" stroke-linecap="round"/><line x1="593.00" y1="569.00" x2="613.00" y2="569.00" stroke="#183f43" stroke-width="2.7" stroke-linecap="round"/><line x1="593.00" y1="569.00" x2="593.00" y2="590.00" stroke="#183f43" stroke-width="2.7" stroke-linecap="round"/><line x1="613.00" y1="569.00" x2="613.00" y2="590.00" stroke="#183f43" stroke-width="2.7" stroke-linecap="round"/><line x1="593.00" y1="590.00" x2="613.00" y2="590.00" stroke="#183f43" stroke-width="2.7" stroke-linecap="round"/><line x1="589.00" y1="600.00" x2="618.00" y2="600.00" stroke="#183f43" stroke-width="2.7" stroke-linecap="round"/>
<text x="597" y="628" font-family="DejaVu Sans, sans-serif" font-size="17" fill="#183f43">6</text>
<line x1="685.00" y1="548.00" x2="705.00" y2="548.00" stroke="#183f43" stroke-width="2.7" stroke-linecap="round"/><line x1="705.00" y1="548.00" x2="705.00" y2="569.00" stroke="#183f43" stroke-width="2.7" stroke-linecap="round"/><line x1="705.00" y1="569.00" x2="705.00" y2="590.00" stroke="#183f43" stroke-width="2.7" stroke-linecap="round"/><line x1="681.00" y1="600.00" x2="710.00" y2="600.00" stroke="#183f43" stroke-width="2.7" stroke-linecap="round"/>
<text x="689" y="628" font-family="DejaVu Sans, sans-serif" font-size="17" fill="#183f43">7</text>
<line x1="777.00" y1="548.00" x2="797.00" y2="548.00" stroke="#183f43" stroke-width="2.7" stroke-linecap="round"/><line x1="797.00" y1="548.00" x2="797.00" y2="569.00" stroke="#183f43" stroke-width="2.7" stroke-linecap="round"/><line x1="797.00" y1="569.00" x2="797.00" y2="590.00" stroke="#183f43" stroke-width="2.7" stroke-linecap="round"/><line x1="777.00" y1="590.00" x2="797.00" y2="590.00" stroke="#183f43" stroke-width="2.7" stroke-linecap="round"/><line x1="777.00" y1="569.00" x2="777.00" y2="590.00" stroke="#183f43" stroke-width="2.7" stroke-linecap="round"/><line x1="777.00" y1="548.00" x2="777.00" y2="569.00" stroke="#183f43" stroke-width="2.7" stroke-linecap="round"/><line x1="777.00" y1="569.00" x2="797.00" y2="569.00" stroke="#183f43" stroke-width="2.7" stroke-linecap="round"/><line x1="773.00" y1="600.00" x2="802.00" y2="600.00" stroke="#183f43" stroke-width="2.7" stroke-linecap="round"/>
<text x="781" y="628" font-family="DejaVu Sans, sans-serif" font-size="17" fill="#183f43">8</text>
<line x1="869.00" y1="548.00" x2="889.00" y2="548.00" stroke="#183f43" stroke-width="2.7" stroke-linecap="round"/><line x1="889.00" y1="548.00" x2="889.00" y2="569.00" stroke="#183f43" stroke-width="2.7" stroke-linecap="round"/><line x1="869.00" y1="548.00" x2="869.00" y2="569.00" stroke="#183f43" stroke-width="2.7" stroke-linecap="round"/><line x1="869.00" y1="569.00" x2="889.00" y2="569.00" stroke="#183f43" stroke-width="2.7" stroke-linecap="round"/><line x1="889.00" y1="569.00" x2="889.00" y2="590.00" stroke="#183f43" stroke-width="2.7" stroke-linecap="round"/><line x1="869.00" y1="590.00" x2="889.00" y2="590.00" stroke="#183f43" stroke-width="2.7" stroke-linecap="round"/><line x1="865.00" y1="600.00" x2="894.00" y2="600.00" stroke="#183f43" stroke-width="2.7" stroke-linecap="round"/>
<text x="873" y="628" font-family="DejaVu Sans, sans-serif" font-size="17" fill="#183f43">9</text>
<text x="28" y="681" font-family="DejaVu Sans, sans-serif" font-size="18" fill="#183f43">HAMARKORAR AF DVERGHAMAR-UM</text>
<line x1="45.60" y1="711.20" x2="45.60" y2="751.20" stroke="#183f43" stroke-width="2.3" stroke-linecap="round"/><line x1="45.60" y1="711.20" x2="38.40" y2="705.60" stroke="#183f43" stroke-width="2.3" stroke-linecap="round"/><line x1="45.60" y1="743.20" x2="35.20" y2="736.00" stroke="#183f43" stroke-width="2.3" stroke-linecap="round"/><line x1="45.60" y1="743.20" x2="56.00" y2="736.00" stroke="#183f43" stroke-width="2.3" stroke-linecap="round"/>
<line x1="80.60" y1="711.20" x2="80.60" y2="751.20" stroke="#183f43" stroke-width="2.3" stroke-linecap="round"/><line x1="80.60" y1="711.20" x2="73.40" y2="705.60" stroke="#183f43" stroke-width="2.3" stroke-linecap="round"/><line x1="80.60" y1="720.80" x2="70.20" y2="713.60" stroke="#183f43" stroke-width="2.3" stroke-linecap="round"/><line x1="80.60" y1="732.00" x2="70.20" y2="724.80" stroke="#183f43" stroke-width="2.3" stroke-linecap="round"/>
<line x1="115.60" y1="711.20" x2="115.60" y2="751.20" stroke="#183f43" stroke-width="2.3" stroke-linecap="round"/><line x1="115.60" y1="711.20" x2="108.40" y2="705.60" stroke="#183f43" stroke-width="2.3" stroke-linecap="round"/><line x1="115.60" y1="720.80" x2="105.20" y2="713.60" stroke="#183f43" stroke-width="2.3" stroke-linecap="round"/><line x1="115.60" y1="732.00" x2="105.20" y2="724.80" stroke="#183f43" stroke-width="2.3" stroke-linecap="round"/><line x1="115.60" y1="743.20" x2="105.20" y2="736.00" stroke="#183f43" stroke-width="2.3" stroke-linecap="round"/><line x1="115.60" y1="743.20" x2="126.00" y2="736.00" stroke="#183f43" stroke-width="2.3" stroke-linecap="round"/>
<line x1="150.60" y1="711.20" x2="150.60" y2="751.20" stroke="#183f43" stroke-width="2.3" stroke-linecap="round"/><line x1="150.60" y1="711.20" x2="143.40" y2="705.60" stroke="#183f43" stroke-width="2.3" stroke-linecap="round"/><line x1="150.60" y1="720.80" x2="140.20" y2="713.60" stroke="#183f43" stroke-width="2.3" stroke-linecap="round"/><line x1="150.60" y1="732.00" x2="140.20" y2="724.80" stroke="#183f43" stroke-width="2.3" stroke-linecap="round"/>
<line x1="185.60" y1="711.20" x2="185.60" y2="751.20" stroke="#183f43" stroke-width="2.3" stroke-linecap="round"/><line x1="185.60" y1="711.20" x2="178.40" y2="705.60" stroke="#183f43" stroke-width="2.3" stroke-linecap="round"/><line x1="185.60" y1="732.00" x2="175.20" y2="724.80" stroke="#183f43" stroke-width="2.3" stroke-linecap="round"/><line x1="185.60" y1="743.20" x2="175.20" y2="736.00" stroke="#183f43" stroke-width="2.3" stroke-linecap="round"/><line x1="185.60" y1="720.80" x2="196.00" y2="713.60" stroke="#183f43" stroke-width="2.3" stroke-linecap="round"/><line x1="185.60" y1="743.20" x2="196.00" y2="736.00" stroke="#183f43" stroke-width="2.3" stroke-linecap="round"/>
<line x1="220.60" y1="711.20" x2="220.60" y2="751.20" stroke="#183f43" stroke-width="2.3" stroke-linecap="round"/><line x1="220.60" y1="711.20" x2="213.40" y2="705.60" stroke="#183f43" stroke-width="2.3" stroke-linecap="round"/><line x1="220.60" y1="720.80" x2="210.20" y2="713.60" stroke="#183f43" stroke-width="2.3" stroke-linecap="round"/><line x1="220.60" y1="732.00" x2="210.20" y2="724.80" stroke="#183f43" stroke-width="2.3" stroke-linecap="round"/><line x1="220.60" y1="720.80" x2="231.00" y2="713.60" stroke="#183f43" stroke-width="2.3" stroke-linecap="round"/><line x1="220.60" y1="732.00" x2="231.00" y2="724.80" stroke="#183f43" stroke-width="2.3" stroke-linecap="round"/>
<line x1="255.60" y1="711.20" x2="255.60" y2="751.20" stroke="#183f43" stroke-width="2.3" stroke-linecap="round"/><line x1="255.60" y1="711.20" x2="248.40" y2="705.60" stroke="#183f43" stroke-width="2.3" stroke-linecap="round"/><line x1="255.60" y1="720.80" x2="245.20" y2="713.60" stroke="#183f43" stroke-width="2.3" stroke-linecap="round"/><line x1="255.60" y1="720.80" x2="266.00" y2="713.60" stroke="#183f43" stroke-width="2.3" stroke-linecap="round"/>
<line x1="290.60" y1="711.20" x2="290.60" y2="751.20" stroke="#183f43" stroke-width="2.3" stroke-linecap="round"/><line x1="290.60" y1="711.20" x2="283.40" y2="705.60" stroke="#183f43" stroke-width="2.3" stroke-linecap="round"/><line x1="290.60" y1="732.00" x2="280.20" y2="724.80" stroke="#183f43" stroke-width="2.3" stroke-linecap="round"/><line x1="290.60" y1="743.20" x2="280.20" y2="736.00" stroke="#183f43" stroke-width="2.3" stroke-linecap="round"/><line x1="290.60" y1="720.80" x2="301.00" y2="713.60" stroke="#183f43" stroke-width="2.3" stroke-linecap="round"/><line x1="290.60" y1="743.20" x2="301.00" y2="736.00" stroke="#183f43" stroke-width="2.3" stroke-linecap="round"/>
<line x1="325.60" y1="711.20" x2="325.60" y2="751.20" stroke="#183f43" stroke-width="2.3" stroke-linecap="round"/><line x1="325.60" y1="711.20" x2="318.40" y2="705.60" stroke="#183f43" stroke-width="2.3" stroke-linecap="round"/><line x1="325.60" y1="720.80" x2="315.20" y2="713.60" stroke="#183f43" stroke-width="2.3" stroke-linecap="round"/><line x1="325.60" y1="732.00" x2="315.20" y2="724.80" stroke="#183f43" stroke-width="2.3" stroke-linecap="round"/>
<line x1="360.60" y1="711.20" x2="360.60" y2="751.20" stroke="#183f43" stroke-width="2.3" stroke-linecap="round"/><line x1="360.60" y1="711.20" x2="353.40" y2="705.60" stroke="#183f43" stroke-width="2.3" stroke-linecap="round"/><line x1="360.60" y1="732.00" x2="350.20" y2="724.80" stroke="#183f43" stroke-width="2.3" stroke-linecap="round"/><line x1="360.60" y1="743.20" x2="350.20" y2="736.00" stroke="#183f43" stroke-width="2.3" stroke-linecap="round"/><line x1="360.60" y1="720.80" x2="371.00" y2="713.60" stroke="#183f43" stroke-width="2.3" stroke-linecap="round"/><line x1="360.60" y1="743.20" x2="371.00" y2="736.00" stroke="#183f43" stroke-width="2.3" stroke-linecap="round"/>
<line x1="411.60" y1="711.20" x2="411.60" y2="751.20" stroke="#183f43" stroke-width="2.3" stroke-linecap="round"/><line x1="411.60" y1="711.20" x2="404.40" y2="705.60" stroke="#183f43" stroke-width="2.3" stroke-linecap="round"/><line x1="411.60" y1="720.80" x2="401.20" y2="713.60" stroke="#183f43" stroke-width="2.3" stroke-linecap="round"/><line x1="411.60" y1="732.00" x2="401.20" y2="724.80" stroke="#183f43" stroke-width="2.3" stroke-linecap="round"/>
<line x1="446.60" y1="711.20" x2="446.60" y2="751.20" stroke="#183f43" stroke-width="2.3" stroke-linecap="round"/><line x1="446.60" y1="711.20" x2="439.40" y2="705.60" stroke="#183f43" stroke-width="2.3" stroke-linecap="round"/><line x1="446.60" y1="732.00" x2="436.20" y2="724.80" stroke="#183f43" stroke-width="2.3" stroke-linecap="round"/><line x1="446.60" y1="743.20" x2="436.20" y2="736.00" stroke="#183f43" stroke-width="2.3" stroke-linecap="round"/><line x1="446.60" y1="720.80" x2="457.00" y2="713.60" stroke="#183f43" stroke-width="2.3" stroke-linecap="round"/><line x1="446.60" y1="732.00" x2="457.00" y2="724.80" stroke="#183f43" stroke-width="2.3" stroke-linecap="round"/>
<line x1="497.60" y1="711.20" x2="497.60" y2="751.20" stroke="#183f43" stroke-width="2.3" stroke-linecap="round"/><line x1="497.60" y1="711.20" x2="490.40" y2="705.60" stroke="#183f43" stroke-width="2.3" stroke-linecap="round"/><line x1="497.60" y1="720.80" x2="508.00" y2="713.60" stroke="#183f43" stroke-width="2.3" stroke-linecap="round"/><line x1="497.60" y1="732.00" x2="508.00" y2="724.80" stroke="#183f43" stroke-width="2.3" stroke-linecap="round"/>
<line x1="532.60" y1="711.20" x2="532.60" y2="751.20" stroke="#183f43" stroke-width="2.3" stroke-linecap="round"/><line x1="532.60" y1="711.20" x2="525.40" y2="705.60" stroke="#183f43" stroke-width="2.3" stroke-linecap="round"/><line x1="532.60" y1="720.80" x2="522.20" y2="713.60" stroke="#183f43" stroke-width="2.3" stroke-linecap="round"/><line x1="532.60" y1="743.20" x2="543.00" y2="736.00" stroke="#183f43" stroke-width="2.3" stroke-linecap="round"/>
<line x1="567.60" y1="711.20" x2="567.60" y2="751.20" stroke="#183f43" stroke-width="2.3" stroke-linecap="round"/><line x1="567.60" y1="711.20" x2="560.40" y2="705.60" stroke="#183f43" stroke-width="2.3" stroke-linecap="round"/><line x1="567.60" y1="720.80" x2="557.20" y2="713.60" stroke="#183f43" stroke-width="2.3" stroke-linecap="round"/><line x1="567.60" y1="743.20" x2="557.20" y2="736.00" stroke="#183f43" stroke-width="2.3" stroke-linecap="round"/>
<line x1="602.60" y1="711.20" x2="602.60" y2="751.20" stroke="#183f43" stroke-width="2.3" stroke-linecap="round"/><line x1="602.60" y1="711.20" x2="595.40" y2="705.60" stroke="#183f43" stroke-width="2.3" stroke-linecap="round"/><line x1="602.60" y1="732.00" x2="592.20" y2="724.80" stroke="#183f43" stroke-width="2.3" stroke-linecap="round"/><line x1="602.60" y1="743.20" x2="592.20" y2="736.00" stroke="#183f43" stroke-width="2.3" stroke-linecap="round"/><line x1="602.60" y1="720.80" x2="613.00" y2="713.60" stroke="#183f43" stroke-width="2.3" stroke-linecap="round"/><line x1="602.60" y1="743.20" x2="613.00" y2="736.00" stroke="#183f43" stroke-width="2.3" stroke-linecap="round"/>
<line x1="637.60" y1="711.20" x2="637.60" y2="751.20" stroke="#183f43" stroke-width="2.3" stroke-linecap="round"/><line x1="637.60" y1="711.20" x2="630.40" y2="705.60" stroke="#183f43" stroke-width="2.3" stroke-linecap="round"/><line x1="637.60" y1="720.80" x2="627.20" y2="713.60" stroke="#183f43" stroke-width="2.3" stroke-linecap="round"/><line x1="637.60" y1="743.20" x2="627.20" y2="736.00" stroke="#183f43" stroke-width="2.3" stroke-linecap="round"/><line x1="637.60" y1="720.80" x2="648.00" y2="713.60" stroke="#183f43" stroke-width="2.3" stroke-linecap="round"/><line x1="637.60" y1="732.00" x2="648.00" y2="724.80" stroke="#183f43" stroke-width="2.3" stroke-linecap="round"/>
<line x1="672.60" y1="711.20" x2="672.60" y2="751.20" stroke="#183f43" stroke-width="2.3" stroke-linecap="round"/><line x1="672.60" y1="711.20" x2="665.40" y2="705.60" stroke="#183f43" stroke-width="2.3" stroke-linecap="round"/><line x1="672.60" y1="743.20" x2="662.20" y2="736.00" stroke="#183f43" stroke-width="2.3" stroke-linecap="round"/><line x1="672.60" y1="743.20" x2="683.00" y2="736.00" stroke="#183f43" stroke-width="2.3" stroke-linecap="round"/>
<line x1="707.60" y1="711.20" x2="707.60" y2="751.20" stroke="#183f43" stroke-width="2.3" stroke-linecap="round"/><line x1="707.60" y1="711.20" x2="700.40" y2="705.60" stroke="#183f43" stroke-width="2.3" stroke-linecap="round"/><line x1="707.60" y1="720.80" x2="697.20" y2="713.60" stroke="#183f43" stroke-width="2.3" stroke-linecap="round"/><line x1="707.60" y1="732.00" x2="697.20" y2="724.80" stroke="#183f43" stroke-width="2.3" stroke-linecap="round"/>
<line x1="742.60" y1="711.20" x2="742.60" y2="751.20" stroke="#183f43" stroke-width="2.3" stroke-linecap="round"/><line x1="742.60" y1="711.20" x2="735.40" y2="705.60" stroke="#183f43" stroke-width="2.3" stroke-linecap="round"/><line x1="742.60" y1="720.80" x2="732.20" y2="713.60" stroke="#183f43" stroke-width="2.3" stroke-linecap="round"/><line x1="742.60" y1="732.00" x2="732.20" y2="724.80" stroke="#183f43" stroke-width="2.3" stroke-linecap="round"/><line x1="742.60" y1="743.20" x2="732.20" y2="736.00" stroke="#183f43" stroke-width="2.3" stroke-linecap="round"/><line x1="742.60" y1="743.20" x2="753.00" y2="736.00" stroke="#183f43" stroke-width="2.3" stroke-linecap="round"/>
<line x1="777.60" y1="711.20" x2="777.60" y2="751.20" stroke="#183f43" stroke-width="2.3" stroke-linecap="round"/><line x1="777.60" y1="711.20" x2="770.40" y2="705.60" stroke="#183f43" stroke-width="2.3" stroke-linecap="round"/><line x1="777.60" y1="720.80" x2="767.20" y2="713.60" stroke="#183f43" stroke-width="2.3" stroke-linecap="round"/><line x1="777.60" y1="732.00" x2="767.20" y2="724.80" stroke="#183f43" stroke-width="2.3" stroke-linecap="round"/>
<line x1="812.60" y1="711.20" x2="812.60" y2="751.20" stroke="#183f43" stroke-width="2.3" stroke-linecap="round"/><line x1="812.60" y1="711.20" x2="805.40" y2="705.60" stroke="#183f43" stroke-width="2.3" stroke-linecap="round"/><line x1="812.60" y1="732.00" x2="802.20" y2="724.80" stroke="#183f43" stroke-width="2.3" stroke-linecap="round"/><line x1="812.60" y1="743.20" x2="802.20" y2="736.00" stroke="#183f43" stroke-width="2.3" stroke-linecap="round"/><line x1="812.60" y1="720.80" x2="823.00" y2="713.60" stroke="#183f43" stroke-width="2.3" stroke-linecap="round"/><line x1="812.60" y1="743.20" x2="823.00" y2="736.00" stroke="#183f43" stroke-width="2.3" stroke-linecap="round"/>
<line x1="832.00" y1="732.00" x2="840.00" y2="732.00" stroke="#183f43" stroke-width="2" stroke-linecap="round"/>
<line x1="863.60" y1="711.20" x2="863.60" y2="751.20" stroke="#183f43" stroke-width="2.3" stroke-linecap="round"/><line x1="863.60" y1="711.20" x2="856.40" y2="705.60" stroke="#183f43" stroke-width="2.3" stroke-linecap="round"/><line x1="863.60" y1="732.00" x2="853.20" y2="724.80" stroke="#183f43" stroke-width="2.3" stroke-linecap="round"/><line x1="863.60" y1="720.80" x2="874.00" y2="713.60" stroke="#183f43" stroke-width="2.3" stroke-linecap="round"/>
<line x1="898.60" y1="711.20" x2="898.60" y2="751.20" stroke="#183f43" stroke-width="2.3" stroke-linecap="round"/><line x1="898.60" y1="711.20" x2="891.40" y2="705.60" stroke="#183f43" stroke-width="2.3" stroke-linecap="round"/><line x1="898.60" y1="720.80" x2="888.20" y2="713.60" stroke="#183f43" stroke-width="2.3" stroke-linecap="round"/><line x1="898.60" y1="732.00" x2="888.20" y2="724.80" stroke="#183f43" stroke-width="2.3" stroke-linecap="round"/><line x1="898.60" y1="743.20" x2="888.20" y2="736.00" stroke="#183f43" stroke-width="2.3" stroke-linecap="round"/><line x1="898.60" y1="743.20" x2="909.00" y2="736.00" stroke="#183f43" stroke-width="2.3" stroke-linecap="round"/>
<text x="28" y="798" font-family="DejaVu Sans, sans-serif" font-size="15" fill="#183f43">An inflected association phrase. Long vowels repeat their sign.</text>
<text x="28" y="826" font-family="DejaVu Sans, sans-serif" font-size="15" fill="#183f43">Read left to right. Upper hook marks orientation. Word spaces remain visible.</text>
<text x="28" y="854" font-family="DejaVu Sans, sans-serif" font-size="15" fill="#183f43">Six-sided borders are optional decoration; linear reading order remains unchanged.</text>
</svg>